2.5Hzhigh3min_grf.mot
version=1
nRows=30
nColumns 19
inDegrees=yes
endheader
time	1_ground_force_vx	1_ground_force_vy	1_ground_force_vz	1_ground_force_px	1_ground_force_py	1_ground_force_pz	1_ground_torque_x	1_ground_torque_y	1_ground_torque_z	2_ground_force_vx	2_ground_force_vy	2_ground_force_vz	2_ground_force_px	2_ground_force_py	2_ground_force_pz	2_ground_torque_x	2_ground_torque_y	2_ground_torque_z
            2.502500	           26.418088	          169.898548	          -18.734683	           -0.216983	            0.006306	           -0.423933	           -0.005161	           -0.033193	            0.003660	           18.530820	          123.611122	            6.298830	           -0.247099	            0.005514	           -0.676041	           -0.095839	           -0.639298	           -0.032577
            2.503000	           26.053159	          165.570331	          -18.339621	           -0.217995	            0.006309	           -0.424813	           -0.001432	           -0.009100	            0.001008	           18.171224	          119.375019	            6.096164	           -0.246226	            0.005519	           -0.676371	           -0.089085	           -0.585238	           -0.029887
            2.503500	           25.962394	          160.522875	          -18.361036	           -0.217719	            0.006310	           -0.424938	            0.009151	            0.056580	           -0.006472	           18.379166	          113.667607	            5.934932	           -0.247217	            0.005510	           -0.675089	           -0.108451	           -0.670726	           -0.035021
            2.504000	           25.688794	          155.654665	          -18.151944	           -0.217255	            0.006314	           -0.425779	            0.019611	            0.118828	           -0.013857	           18.203647	          110.352930	            5.735472	           -0.247168	            0.005517	           -0.676775	           -0.106296	           -0.644382	           -0.033491
            2.504500	           25.643447	          152.950671	          -18.163425	           -0.217794	            0.006305	           -0.423705	            0.028434	            0.169596	           -0.020140	           17.891023	          106.115992	            5.814355	           -0.247195	            0.005521	           -0.678037	           -0.115469	           -0.684876	           -0.037526
            2.505000	           25.368690	          148.805294	          -18.363944	           -0.217682	            0.006308	           -0.424454	            0.004475	            0.026249	           -0.003239	           17.672062	          101.879743	            5.799342	           -0.247413	            0.005519	           -0.677747	           -0.125069	           -0.721025	           -0.041043
            2.505500	           25.416184	          144.117019	          -18.063163	           -0.218348	            0.006308	           -0.424421	            0.000784	            0.004444	           -0.000557	           17.220117	           97.274837	            5.642331	           -0.248583	            0.005512	           -0.676911	           -0.104631	           -0.591052	           -0.034283
            2.506000	           25.372529	          140.869476	          -17.434980	           -0.218738	            0.006304	           -0.423678	           -0.010973	           -0.060922	            0.007540	           17.053279	           91.565905	            5.528185	           -0.249183	            0.005509	           -0.676608	           -0.107646	           -0.577997	           -0.034896
            2.506500	           25.006800	          137.804102	          -17.263787	           -0.218081	            0.006304	           -0.423511	           -0.004541	           -0.025022	            0.003135	           16.833547	           87.514633	            5.279189	           -0.248077	            0.005511	           -0.676079	           -0.096747	           -0.502972	           -0.030341
            2.507000	           24.870825	          132.395122	          -17.057355	           -0.218430	            0.006309	           -0.424837	            0.007651	            0.040730	           -0.005248	           16.896308	           83.095577	            5.169544	           -0.249979	            0.005506	           -0.676583	           -0.120907	           -0.594617	           -0.036992
            2.507500	           24.413248	          128.969593	          -16.979191	           -0.218006	            0.006304	           -0.423601	            0.012370	            0.065345	           -0.008603	           16.677987	           78.675339	            5.106946	           -0.251885	            0.005497	           -0.676044	           -0.133990	           -0.632075	           -0.041029
            2.508000	           24.551081	          124.824295	          -17.180734	           -0.218836	            0.006306	           -0.423984	            0.032520	            0.165339	           -0.022757	           16.644555	           74.991199	            5.375393	           -0.250463	            0.005511	           -0.678382	           -0.156776	           -0.706347	           -0.050631
            2.508500	           24.185385	          121.578656	          -17.010314	           -0.218954	            0.006307	           -0.424202	            0.020711	            0.104115	           -0.014567	           16.561448	           72.044822	            5.271064	           -0.250162	            0.005513	           -0.678837	           -0.158703	           -0.690380	           -0.050511
            2.509000	           23.911911	          118.512317	          -16.610068	           -0.218205	            0.006300	           -0.422640	           -0.006644	           -0.032928	            0.004615	           15.873963	           67.807033	            5.209322	           -0.249911	            0.005512	           -0.678166	           -0.149251	           -0.637537	           -0.048979
            2.509500	           23.959746	          113.823452	          -16.171720	           -0.219362	            0.006304	           -0.423734	           -0.003985	           -0.018930	            0.002690	           15.558580	           64.307541	            5.056193	           -0.252416	            0.005505	           -0.678825	           -0.134846	           -0.557352	           -0.043822
            2.510000	           23.227665	          109.856286	          -15.911769	           -0.218637	            0.006303	           -0.423414	           -0.006065	           -0.028683	            0.004154	           15.528928	           59.520177	            4.851417	           -0.253641	            0.005492	           -0.676510	           -0.156008	           -0.597958	           -0.048739
            2.510500	           23.228255	          107.872970	          -15.828560	           -0.219103	            0.006295	           -0.421414	            0.013619	            0.063247	           -0.009280	           15.215080	           55.650706	            5.166255	           -0.252005	            0.005504	           -0.678069	           -0.155439	           -0.568535	           -0.052779
            2.511000	           23.091176	          103.547157	          -15.984338	           -0.219139	            0.006305	           -0.423856	            0.035730	            0.160222	           -0.024733	           14.848256	           53.439573	            5.158530	           -0.254598	            0.005504	           -0.680676	           -0.150205	           -0.540595	           -0.052184
            2.511500	           22.770395	           99.762499	          -16.229053	           -0.220119	            0.006302	           -0.423120	            0.025456	            0.111529	           -0.018143	           14.770466	           49.020010	            5.048944	           -0.255186	            0.005506	           -0.681943	           -0.193002	           -0.640533	           -0.065973
            2.512000	           22.724772	           96.698564	          -16.379647	           -0.218587	            0.006301	           -0.422812	           -0.005469	           -0.023273	            0.003942	           14.313122	           45.888968	            4.709477	           -0.256690	            0.005499	           -0.681369	           -0.209490	           -0.671642	           -0.068929
            2.512500	           22.772652	           93.631500	          -15.796775	           -0.219430	            0.006297	           -0.421940	            0.001353	            0.005564	           -0.000939	           13.479649	           43.124870	            4.371483	           -0.254587	            0.005509	           -0.682154	           -0.175914	           -0.562795	           -0.057049
            2.513000	           22.086695	           88.762818	          -15.494946	           -0.219784	            0.006312	           -0.425563	            0.009087	            0.036520	           -0.006375	           13.448606	           38.706313	            4.027237	           -0.254676	            0.005499	           -0.679390	           -0.193864	           -0.557959	           -0.058053
            2.513500	           21.767505	           86.236874	          -15.000556	           -0.219789	            0.006302	           -0.423165	            0.004982	            0.019735	           -0.003433	           12.989309	           36.127381	            3.783596	           -0.258006	            0.005483	           -0.678350	           -0.178602	           -0.496749	           -0.052024
            2.514000	           21.538705	           83.352775	          -15.058211	           -0.218679	            0.006296	           -0.421697	            0.013445	            0.052032	           -0.009400	           12.855385	           34.285558	            3.730158	           -0.262853	            0.005489	           -0.684800	           -0.159857	           -0.426342	           -0.046385
            2.514500	           21.126580	           79.567510	          -15.165131	           -0.218927	            0.006306	           -0.424185	            0.037207	            0.140129	           -0.026708	           12.676166	           32.073428	            4.191634	           -0.260471	            0.005509	           -0.687968	           -0.176928	           -0.447666	           -0.058505
            2.515000	           20.989741	           77.043371	          -15.083899	           -0.220148	            0.006295	           -0.421607	            0.020048	            0.073586	           -0.014407	           12.546456	           29.124873	            4.650461	           -0.260311	            0.005516	           -0.689852	           -0.191370	           -0.444240	           -0.070933
            2.515500	           20.624290	           73.076472	          -14.870715	           -0.220492	            0.006302	           -0.423261	           -0.013225	           -0.046860	            0.009536	           12.323279	           25.995347	            4.123182	           -0.259282	            0.005534	           -0.693748	           -0.216671	           -0.457058	           -0.072495
            2.516000	           20.487984	           70.731615	          -14.559430	           -0.219079	            0.006299	           -0.422541	           -0.013368	           -0.046151	            0.009500	           11.535245	           23.600384	            3.598770	           -0.265105	            0.005502	           -0.690721	           -0.180037	           -0.368345	           -0.056168
            2.516500	           20.030521	           67.305889	          -14.435411	           -0.219590	            0.006303	           -0.423491	            0.002193	            0.007368	           -0.001580	           10.934651	           21.205763	            3.168134	           -0.263545	            0.005489	           -0.685620	           -0.188757	           -0.366059	           -0.054689
            2.517000	           19.802077	           64.961801	          -14.307323	           -0.219484	            0.006294	           -0.421329	            0.005709	            0.018729	           -0.004125	           10.472654	           19.363760	            2.833266	           -0.267735	            0.005475	           -0.685901	           -0.185133	           -0.342308	           -0.050086
